<?xml version="1.0" standalone="no"?>
<!DOCTYPE svg PUBLIC "-//W3C//DTD SVG 20010904//EN"
 "http://www.w3.org/TR/2001/REC-SVG-20010904/DTD/svg10.dtd">
<svg version="1.0" xmlns="http://www.w3.org/2000/svg"
 width="340.000000pt" height="215.000000pt" viewBox="0 0 1024.000000 734.000000"
 preserveAspectRatio="xMidYMid meet">

<g transform="translate(0.000000,734.000000) scale(0.100000,-0.100000)"
fill="#E8C300" stroke="none">
<path d="M8960 7234 c-63 -8 -369 -46 -680 -85 -1631 -201 -3104 -418 -5615
-825 -739 -119 -2341 -385 -2350 -389 -18 -9 136 6 700 66 1113 119 1937 218
2940 353 886 120 821 104 -275 -69 -333 -53 -609 -97 -615 -100 -46 -17 218
19 2195 300 2596 369 3569 492 3642 458 18 -8 20 -12 8 -16 -15 -6 -920 -127
-1540 -207 -173 -22 -542 -72 -820 -110 -855 -118 -2563 -344 -4380 -580
-1703 -221 -1643 -214 -1756 -205 -122 11 -155 2 -220 -57 -30 -28 -62 -64
-69 -79 -22 -42 -18 -136 15 -394 16 -126 50 -426 75 -665 119 -1133 241
-2151 436 -3625 111 -848 116 -878 151 -896 30 -16 120 -7 613 57 913 120
1136 147 1830 225 1479 164 2234 259 3560 445 535 75 907 118 2150 249 1002
106 1006 106 1035 160 20 37 16 78 -240 2650 -254 2548 -313 3094 -340 3174
-42 118 -118 171 -253 177 -45 1 -134 -4 -197 -12z m233 -219 c20 -20 61 -265
44 -265 -12 0 -72 107 -82 149 -12 46 -12 46 -64 53 -55 8 -111 32 -111 48 0
11 26 18 85 23 89 8 114 6 128 -8z m-177 -207 c9 -14 -23 -38 -53 -38 -16 0
-23 6 -23 19 0 29 61 44 76 19z m194 -224 c23 -153 108 -856 185 -1534 118
-1039 148 -1289 196 -1670 97 -764 171 -1408 193 -1680 10 -117 -14 23 -93
545 -80 528 -187 1206 -196 1235 -6 21 2 -86 26 -362 11 -130 19 -254 17 -275
-3 -37 -73 502 -103 792 -23 224 -76 875 -73 893 2 8 49 -304 106 -694 109
-753 139 -943 141 -906 4 73 -310 2849 -399 3527 -16 126 -30 238 -30 249 0
46 11 0 30 -120z m-337 73 c-60 -74 -592 -710 -667 -797 -89 -102 -612 -675
-691 -755 -48 -49 -30 -26 51 70 66 77 100 122 73 95 -9 -8 -50 -55 -93 -105
-42 -49 -91 -106 -109 -125 -100 -107 -588 -656 -690 -775 -65 -77 -131 -153
-145 -169 -15 -16 -27 -33 -27 -37 0 -4 -50 -65 -111 -135 -182 -210 -235
-260 -234 -221 2 40 -16 19 835 997 136 157 300 339 364 405 64 66 249 271
411 455 607 690 1040 1156 1048 1130 2 -5 -5 -20 -15 -33z m-278 -7 c11 -18
-736 -779 -2608 -2658 l-920 -922 -76 48 c-42 27 -184 118 -316 202 -498 318
-857 535 -1746 1053 -1034 602 -1919 1113 -2149 1239 -36 20 -108 64 -160 99
-88 58 -93 63 -70 70 14 4 158 17 320 29 162 12 432 34 600 50 305 30 357 34
349 26 -2 -2 -231 -34 -509 -70 -278 -37 -527 -70 -555 -75 -102 -17 14 -11
341 19 993 92 1674 171 2914 340 511 69 685 91 1340 165 316 36 856 99 1200
140 792 94 920 108 925 103 3 -2 -57 -12 -133 -22 -1005 -128 -1996 -271
-2055 -296 -79 -35 765 73 1578 200 620 97 765 122 760 131 -5 8 0 9 555 84
217 29 398 54 402 54 4 1 10 -3 13 -9z m-1062 -137 c-7 -2 -19 -2 -25 0 -7 3
-2 5 12 5 14 0 19 -2 13 -5z m1441 -20 c30 -161 115 -871 160 -1353 56 -583
92 -1141 136 -2075 17 -352 35 -709 40 -794 6 -84 9 -155 8 -156 -2 -2 -88 53
-193 121 -394 259 -627 389 -1440 806 -621 319 -1140 581 -1130 571 18 -19
366 -264 565 -398 231 -155 481 -311 985 -615 684 -413 1332 -819 1435 -901
37 -29 51 -48 56 -74 3 -20 4 -38 2 -40 -4 -5 -394 229 -868 520 -793 486
-2407 1491 -2429 1510 -11 11 70 97 455 486 478 483 637 651 990 1049 422 475
1180 1333 1193 1351 19 26 29 24 35 -8z m-4161 -30 c-7 -2 -19 -2 -25 0 -7 3
-2 5 12 5 14 0 19 -2 13 -5z m-140 -20 c-7 -2 -19 -2 -25 0 -7 3 -2 5 12 5 14
0 19 -2 13 -5z m-4293 -678 c17 -21 -1 -41 -45 -49 -47 -9 -92 -50 -106 -95
-13 -45 -9 -85 61 -531 27 -173 74 -475 104 -670 87 -560 109 -700 114 -696
13 13 -103 1228 -158 1656 -25 195 -25 220 -2 220 29 0 349 -203 922 -584 534
-356 927 -611 1620 -1053 720 -459 830 -531 830 -543 0 -34 -112 31 -650 379
-398 257 -608 390 -698 442 -46 26 -82 51 -82 56 1 4 -9 15 -22 23 -21 14 -22
14 -9 -3 7 -9 10 -17 6 -17 -15 0 -45 33 -46 49 0 10 -2 12 -6 4 -7 -18 -23
-16 -23 2 0 8 -5 15 -12 15 -36 0 -940 564 -1538 959 -69 46 -146 94 -172 107
l-48 24 0 -42 c0 -24 11 -162 25 -308 23 -247 54 -625 170 -2075 25 -313 55
-671 66 -795 12 -124 22 -280 23 -346 0 -69 5 -120 10 -116 5 3 6 -17 2 -46
-4 -34 -3 -52 4 -52 5 0 10 -20 10 -45 0 -24 9 -115 20 -202 12 -87 41 -318
65 -513 51 -399 59 -449 86 -502 35 -69 16 -104 -29 -55 -28 30 -47 124 -106
537 -61 429 -200 1578 -316 2623 -37 329 -16 223 39 -200 56 -432 185 -1374
200 -1458 21 -123 7 18 -34 335 -152 1184 -346 2657 -350 2665 -9 18 6 -126
46 -459 22 -180 38 -330 36 -332 -2 -2 -11 47 -20 108 -9 62 -59 407 -111 766
l-95 653 25 54 c27 57 62 86 133 111 46 17 46 17 61 -1z m385 -220 c165 -106
480 -308 700 -450 600 -387 853 -547 925 -587 102 -56 1586 -997 2176 -1380
415 -270 424 -275 467 -283 20 -4 58 -4 84 0 60 9 71 20 541 515 384 404 517
543 1456 1515 591 611 807 832 789 805 -35 -52 -442 -540 -450 -540 -3 0 0 8
7 18 63 88 -1047 -1077 -1833 -1925 -221 -238 -354 -365 -415 -395 -40 -19
-63 -23 -147 -22 -84 0 -107 3 -143 23 -24 12 -233 138 -465 278 -232 141
-457 275 -500 299 -84 44 -89 66 -9 40 42 -14 97 -44 207 -110 l30 -18 -25 21
c-39 33 -153 100 -196 115 -21 8 -64 19 -96 26 -69 14 -164 72 -424 258 -471
337 -656 457 -2163 1410 -640 404 -854 543 -866 562 -4 6 -4 18 -1 26 7 20 -7
28 351 -201z m66 -604 c313 -217 583 -381 994 -606 282 -154 1603 -852 1632
-862 10 -3 -11 16 -47 42 -68 50 -97 74 -70 60 27 -15 244 -164 273 -187 l29
-23 -348 -340 c-485 -475 -783 -791 -1753 -1857 -473 -520 -506 -555 -513
-531 -10 38 -61 458 -102 843 -95 883 -138 1492 -201 2825 -25 538 -32 658
-41 708 -3 15 -3 27 -1 27 3 0 69 -45 148 -99z m8526 -363 c-3 -8 -6 -5 -6 6
-1 11 2 17 5 13 3 -3 4 -12 1 -19z m-8960 -570 c-3 -7 -5 -2 -5 12 0 14 2 19
5 13 2 -7 2 -19 0 -25z m30 -245 c-3 -10 -5 -4 -5 12 0 17 2 24 5 18 2 -7 2
-21 0 -30z m5779 -110 c-6 -15 -46 -18 -46 -2 0 5 8 21 18 34 17 23 17 23 25
2 4 -11 5 -27 3 -34z m-18 -33 c-10 -29 -803 -906 -846 -935 -83 -57 -279 -90
-389 -67 -54 12 -158 70 -428 240 -240 151 -665 434 -665 444 0 31 77 -11 460
-255 532 -339 611 -385 687 -397 143 -24 266 27 389 160 114 124 656 728 678
757 11 14 33 34 50 44 33 20 70 25 64 9z m183 -120 c157 -125 479 -349 765
-533 292 -188 1411 -882 2049 -1272 116 -70 229 -140 252 -154 42 -25 54 -41
32 -41 -23 0 -731 422 -1374 820 -192 119 -435 267 -540 330 -275 165 -1310
811 -1353 846 -10 7 39 94 52 94 2 0 54 -41 117 -90z m844 -703 c611 -408
1096 -720 1655 -1064 373 -229 400 -246 400 -254 0 -3 -57 -11 -127 -18 -294
-29 -1523 -185 -2873 -366 -714 -95 -1040 -134 -1520 -179 -544 -52 -1522
-129 -2345 -185 -242 -17 -476 -33 -519 -36 -74 -5 -78 -5 -65 11 8 10 179
182 380 383 542 543 842 867 1342 1451 302 352 373 430 393 430 8 0 110 -51
228 -114 433 -233 666 -345 736 -356 197 -30 383 12 519 120 67 53 542 603
630 730 14 19 47 61 74 92 l50 57 226 -154 c124 -85 492 -332 816 -548z
m-3449 602 c7 -12 -12 -29 -33 -29 -28 0 -11 36 19 39 4 1 10 -4 14 -10z m-72
-91 c-41 -49 -119 -134 -375 -408 -146 -157 -364 -393 -484 -525 -409 -448
-1136 -1235 -1142 -1235 -3 0 15 24 39 53 386 457 423 499 853 972 688 757
1078 1164 1114 1165 11 0 9 -6 -5 -22z m161 -78 c18 -20 18 -21 -11 -53 -17
-17 -93 -102 -170 -187 -734 -817 -1333 -1457 -2144 -2290 l-278 -286 96 2 97
3 -125 -19 c-69 -11 -129 -18 -133 -17 -16 5 328 388 1307 1457 330 360 733
799 896 974 162 176 319 346 348 378 58 63 86 72 117 38z m5692 -467 c-3 -10
-5 -4 -5 12 0 17 2 24 5 18 2 -7 2 -21 0 -30z m243 -1323 c-13 -25 -65 -52
-92 -48 -18 3 -13 11 36 71 31 38 57 78 58 90 1 12 3 -4 5 -35 2 -32 -1 -67
-7 -78z m-152 -39 c3 -21 1 -23 -25 -16 -59 14 -67 49 -10 43 25 -2 33 -8 35
-27z m-97 -61 c20 -16 21 -19 7 -20 -10 0 -144 -14 -299 -31 -155 -16 -283
-28 -285 -26 -4 3 65 17 371 72 163 29 177 29 206 5z m-5834 -706 c-3 -3 -12
-4 -19 -1 -8 3 -5 6 6 6 11 1 17 -2 13 -5z m-118 -8 c-12 -12 -389 -67 -719
-106 -241 -28 -1339 -140 -1365 -139 -42 1 10 10 365 58 465 64 710 94 985
121 121 12 326 32 455 44 264 26 285 28 279 22z m-2062 -192 c-3 -3 -12 -4
-19 -1 -8 3 -5 6 6 6 11 1 17 -2 13 -5z m-487 -58 c0 -16 -37 -32 -48 -21 -7
7 25 35 40 35 4 0 8 -6 8 -14z m-119 -102 c45 -28 46 -44 5 -59 -38 -13 -60 4
-64 49 -4 43 5 45 59 10z m194 -10 l30 -26 -48 5 c-55 5 -81 22 -57 37 24 15
43 11 75 -16z"/>
<path d="M9622 2800 c0 -14 2 -19 5 -12 2 6 2 18 0 25 -3 6 -5 1 -5 -13z"/>
<path d="M6525 4018 l-40 -43 43 40 c39 36 47 45 39 45 -2 0 -21 -19 -42 -42z"/>
<path d="M8104 6237 c-250 -252 -581 -603 -678 -717 -64 -76 412 410 628 640
126 135 257 273 290 308 33 34 58 62 55 62 -3 0 -136 -132 -295 -293z"/>
<path d="M8813 6263 c-115 -135 -223 -265 -289 -348 l-39 -49 32 22 c28 20 79
73 314 326 28 29 52 47 60 44 10 -4 29 -86 62 -269 27 -145 59 -313 72 -374
22 -97 24 -103 19 -45 -6 65 -75 611 -96 748 -6 39 -14 72 -18 72 -5 0 -57
-57 -117 -127z"/>
<path d="M9094 4660 c10 -224 66 -735 74 -680 7 44 -63 809 -75 820 -3 3 -3
-60 1 -140z"/>
<path d="M272 5055 c0 -16 2 -22 5 -12 2 9 2 23 0 30 -3 6 -5 -1 -5 -18z"/>
<path d="M830 3219 c0 -89 76 -859 86 -868 9 -9 3 95 -16 322 -30 341 -70 657
-70 546z"/>
<path d="M950 1679 c1 -58 122 -929 129 -929 3 1 76 82 161 181 320 372 346
423 71 139 -124 -128 -192 -192 -199 -185 -5 6 -22 84 -37 175 -30 183 -114
613 -121 619 -2 2 -4 2 -4 0z"/>
<path d="M8215 1419 c-281 -31 -850 -107 -1126 -149 -357 -56 -918 -148 -934
-154 -70 -29 1595 192 1995 264 152 27 170 32 176 41 6 10 1 10 -111 -2z"/>
<path d="M6103 1103 c9 -2 23 -2 30 0 6 3 -1 5 -18 5 -16 0 -22 -2 -12 -5z"/>
<path d="M4985 1023 c-344 -23 -1160 -117 -1051 -122 69 -3 1163 112 1174 124
5 5 -25 5 -123 -2z"/>
<path d="M3018 6173 c6 -2 18 -2 25 0 6 3 1 5 -13 5 -14 0 -19 -2 -12 -5z"/>
<path d="M102 5760 c0 -14 2 -19 5 -12 2 6 2 18 0 25 -3 6 -5 1 -5 -13z"/>
<path d="M10048 1405 c6 -172 -1 -198 -66 -239 -39 -26 -113 -37 -682 -101
-210 -24 -1028 -120 -1095 -128 -21 -3 -17 -4 15 -5 102 -4 1224 117 1615 174
126 18 148 27 200 85 l38 42 -7 116 c-12 185 -23 221 -18 56z"/>
<path d="M6025 709 c-203 -27 -703 -92 -1110 -144 -1017 -131 -2313 -311
-2413 -334 l-37 -9 35 -1 c105 -3 1493 172 2445 309 830 119 1415 205 1485
219 l45 9 -40 0 c-22 0 -206 -22 -410 -49z"/>
</g>
</svg>
