<svg width="64" height="22" xmlns="http://www.w3.org/2000/svg">
 <style type="text/css">.st0{fill:#D1D3D4;}
	.st1{fill:#000000;}
	.st2{fill:#A7A9AC;}
	.st3{fill:#C09EC9;}
	.st4{fill:#BCBEC0;}
	.st5{fill:#FFFFFF;}
	.st6{fill:#FBB040;}
	.st7{fill:#F7941D;}
	.st8{fill: #E8C300;}
	.st9{fill:#D7DF23;}
	.st10{fill:#A0DAE3;}
	.st11{fill:#00AEEF;}
	.st12{fill:#92278F;}
	.st13{fill:#E6E7E8;}
	.st14{fill:#ED1C24;}
	.st15{fill:#939598;}
	.st16{fill:#C2B59B;}
	.st17{fill:#3C2415;}
	.st18{fill:#C49A6C;}
	.st19{fill:#FDCE8F;}
	.st20{fill:#262262;}
	.st21{fill:#808285;}
	.st22{fill:#231F20;}
	.st23{fill:#BE1E2D;}
	.st24{fill:#FFFAC7;}
	.st25{fill:#27AAE1;}
	.st26{fill:#F1F2F2;}
	.st27{fill:#2BB673;}
	.st28{fill:#58595B;}
	.st29{fill:#E8C300;;}</style>

 <g>
  <title>background</title>
  <rect fill="none" id="canvas_background" height="24" width="66" y="-1" x="-1"/>
 </g>
 <g>
  <title>Layer 1</title>
  <g id="svg_1">
   <g id="svg_29">
    <polygon id="svg_27" points="7.608029082417488,18.670074462890625 61.70802994072437,18.670074462890625 55.80802841484547,1.6700725555419922 1.7080292254686356,1.6700725555419922 " class="st8"/>
    <path id="svg_28" d="m61.708025,19.670073l-54.1,0c-0.4,0 -0.8,-0.3 -0.9,-0.7l-5.9,-17c-0.1,-0.3 -0.1,-0.6 0.1,-0.9s0.5,-0.4 0.8,-0.4l54.1,0c0.4,0 0.8,0.3 0.9,0.7l5.9,17c0.1,0.3 0.1,0.6 -0.1,0.9s-0.5,0.4 -0.8,0.4zm-53.4,-2l52,0l-5.2,-15l-52,0l5.2,15z" class="st1"/>
   </g>
   <g id="svg_32">
    <rect id="svg_30" height="19.1" width="54.1" class="st29" y="1.670073" x="1.708029"/>
    <path id="svg_31" d="m55.808025,21.870073l-54.1,0c-0.6,0 -1,-0.4 -1,-1l0,-19.2c0,-0.6 0.4,-1 1,-1l54.1,0c0.6,0 1,0.4 1,1l0,19.1c0,0.6 -0.4,1.1 -1,1.1zm-53.1,-2l52.1,0l0,-17.2l-52.1,0l0,17.2z" class="st1"/>
   </g>
   <g id="svg_49">
    <g id="svg_34">
     <path id="svg_33" d="m8.108025,14.570073c-0.1,0 -0.2,0 -0.3,0c-0.1,0 -0.2,0 -0.3,0l0,1.9l-1.7,0l0,-7.5l1.7,0c0.4,0 0.8,0.1 1.2,0.2c0.4,0.1 0.7,0.3 1,0.6c0.3,0.3 0.5,0.5 0.7,0.9c0.2,0.3 0.2,0.7 0.2,1.1c0,0.4 -0.1,0.8 -0.3,1.1c-0.2,0.3 -0.4,0.6 -0.7,0.9l1.7,2.7l-2,0l-1.2,-1.9zm-0.6,-1.7c0.2,0 0.4,0 0.5,-0.1c0.2,-0.1 0.3,-0.1 0.4,-0.2c0.1,-0.1 0.2,-0.2 0.3,-0.3c0.1,-0.1 0.1,-0.3 0.1,-0.4c0,-0.1 0,-0.3 -0.1,-0.4c0,-0.2 -0.1,-0.3 -0.2,-0.4c-0.1,-0.1 -0.3,-0.2 -0.4,-0.2c-0.2,-0.1 -0.3,-0.1 -0.5,-0.1l0,2.1l-0.1,0z" class="st5"/>
    </g>
    <g id="svg_36">
     <path id="svg_35" d="m16.808025,10.670073l-3.1,0l0,1.1l2.5,0l0,1.7l-2.5,0l0,1.2l3.1,0l0,1.7l-4.8,0l0,-7.5l4.8,0l0,1.8z" class="st5"/>
    </g>
    <g id="svg_38">
     <path id="svg_37" d="m19.908025,16.670073c-0.2,0 -0.5,0 -0.7,-0.1c-0.2,-0.1 -0.5,-0.2 -0.7,-0.3c-0.4,-0.2 -0.7,-0.5 -0.9,-0.9c-0.2,-0.4 -0.3,-0.8 -0.3,-1.2l1.7,0c0,0.2 0,0.4 0.1,0.5c0.1,0.1 0.2,0.2 0.2,0.2c0.1,0.1 0.3,0.1 0.4,0.1c0.1,0 0.3,0 0.4,-0.1c0.1,0 0.2,-0.1 0.2,-0.2c0.1,-0.1 0.1,-0.1 0.1,-0.2c0,-0.1 0,-0.1 0.1,-0.2c0,-0.1 0,-0.1 0,-0.1c0,0 0,-0.1 0,-0.1c0,-0.1 0,-0.1 -0.1,-0.2c0,-0.1 -0.1,-0.1 -0.1,-0.2c-0.1,-0.1 -0.1,-0.1 -0.2,-0.2c-0.1,0 -0.2,-0.1 -0.2,-0.1c-0.1,0 -0.2,-0.1 -0.3,-0.1c-0.2,-0.1 -0.4,-0.1 -0.5,-0.2c-0.2,-0.1 -0.4,-0.2 -0.6,-0.3c-0.2,-0.2 -0.4,-0.3 -0.6,-0.6c-0.2,-0.2 -0.3,-0.5 -0.4,-0.7c-0.1,-0.3 -0.1,-0.5 -0.1,-0.8c0,-0.3 0.1,-0.5 0.2,-0.8c0.1,-0.2 0.3,-0.4 0.5,-0.6c0.2,-0.2 0.4,-0.3 0.6,-0.4c0.2,-0.1 0.5,-0.2 0.7,-0.2c0.3,0 0.5,0 0.8,0.1c0.3,0.1 0.5,0.2 0.7,0.3c0.2,0.1 0.4,0.3 0.5,0.5c0.2,0.2 0.3,0.4 0.4,0.6c0.1,0.2 0.1,0.5 0.1,0.7l-1.7,0c0,-0.2 0,-0.3 -0.1,-0.3c-0.1,-0.1 -0.2,-0.1 -0.3,-0.1c0,0 0,0 -0.1,0c-0.1,0 -0.1,0 -0.2,0c-0.1,0 -0.1,0 -0.2,0.1c-0.1,0 -0.1,0.1 -0.2,0.2c-0.1,0.1 -0.1,0.2 0,0.3c0,0.1 0.1,0.2 0.2,0.3c0.1,0.1 0.2,0.1 0.3,0.2c0.1,0 0.2,0.1 0.4,0.1c0.1,0 0.2,0.1 0.4,0.1c0.1,0 0.2,0.1 0.4,0.1c0.4,0.2 0.8,0.5 1.1,0.9c0.3,0.4 0.4,0.8 0.4,1.3c0,0.5 -0.1,0.9 -0.4,1.3c-0.3,0.4 -0.6,0.7 -1.1,0.9c-0.2,0.1 -0.4,0.1 -0.5,0.2c0,0.2 -0.2,0.2 -0.4,0.2z" class="st5"/>
    </g>
    <g id="svg_40">
     <path id="svg_39" d="m27.908025,10.670073l-3.1,0l0,1.1l2.5,0l0,1.7l-2.5,0l0,1.2l3.1,0l0,1.7l-4.8,0l0,-7.5l4.8,0l0,1.8z" class="st5"/>
    </g>
    <g id="svg_42">
     <path id="svg_41" d="m31.108025,14.570073c-0.1,0 -0.2,0 -0.3,0c-0.1,0 -0.2,0 -0.3,0l0,1.9l-1.7,0l0,-7.5l1.7,0c0.4,0 0.8,0.1 1.2,0.2c0.4,0.1 0.7,0.3 1,0.6c0.3,0.3 0.5,0.5 0.7,0.9c0.2,0.3 0.2,0.7 0.2,1.1c0,0.4 -0.1,0.8 -0.3,1.1c-0.2,0.3 -0.4,0.6 -0.7,0.9l1.7,2.7l-2,0l-1.2,-1.9zm-0.5,-1.7c0.2,0 0.4,0 0.5,-0.1c0.2,-0.1 0.3,-0.1 0.4,-0.2c0.1,-0.1 0.2,-0.2 0.3,-0.3c0.1,-0.1 0.1,-0.3 0.1,-0.4c0,-0.1 0,-0.3 -0.1,-0.4c-0.1,-0.1 -0.2,-0.2 -0.3,-0.3c-0.1,-0.1 -0.3,-0.2 -0.4,-0.2c-0.2,-0.1 -0.3,-0.1 -0.5,-0.1l0,2z" class="st5"/>
    </g>
    <g id="svg_44">
     <path id="svg_43" d="m39.008025,8.870073l1.8,0l-2.6,7.6l-1.6,0l-2.4,-7.6l1.8,0l1.4,4.7l1.6,-4.7z" class="st5"/>
    </g>
    <g id="svg_46">
     <path id="svg_45" d="m45.608025,10.670073l-3.1,0l0,1.1l2.5,0l0,1.7l-2.5,0l0,1.2l3.1,0l0,1.7l-4.8,0l0,-7.5l4.8,0l0,1.8z" class="st5"/>
    </g>
    <g id="svg_48">
     <path id="svg_47" d="m48.008025,8.970073c0.5,0 1,0.1 1.4,0.4c0.4,0.2 0.8,0.5 1.1,0.8c0.3,0.3 0.6,0.7 0.8,1.2c0.2,0.5 0.3,0.9 0.3,1.4c0,0.5 -0.1,1 -0.3,1.4c-0.2,0.4 -0.4,0.8 -0.8,1.2c-0.3,0.3 -0.7,0.6 -1.1,0.8c-0.4,0.2 -0.9,0.3 -1.4,0.3l-1.7,0l0,-7.6l1.7,0.1l0,0zm0,5.8c0.3,0 0.5,-0.1 0.7,-0.2c0.2,-0.1 0.4,-0.3 0.6,-0.4c0.2,-0.2 0.3,-0.4 0.4,-0.6c0.1,-0.2 0.1,-0.5 0.1,-0.7c0,-0.3 0,-0.5 -0.1,-0.8c-0.1,-0.2 -0.2,-0.5 -0.4,-0.6c-0.2,-0.2 -0.4,-0.3 -0.6,-0.5c-0.2,-0.1 -0.5,-0.2 -0.7,-0.2l0,4z" class="st5"/>
    </g>
   </g>
   <g id="svg_51">
    <path id="svg_50" d="m55.908025,5.570073l-50.5,0c-0.6,0 -1,-0.4 -1,-1s0.4,-1 1,-1l50.5,0c0.6,0 1,0.4 1,1s-0.4,1 -1,1z" class="st1"/>
   </g>
  </g>
  <rect id="svg_54" height="0.291971" width="0" y="-27.765967" x="102.729931" stroke-width="1.5" stroke="#000" fill="#0fffff"/>
 </g>
</svg>
